Coordinates
version=1
nRows=32
nColumns=22
inDegrees=yes

Units are S.I. units (second, meters, Newtons, ...)
If the header above contains a line with 'inDegrees', this indicates whether rotational values are in degrees (yes) or radians (no).

endheader
time	pelvis_tilt	pelvis_list	pelvis_rotation	pelvis_tx	pelvis_ty	pelvis_tz	hip_flexion_r	hip_adduction_r	hip_rotation_r	knee_angle_r	ankle_angle_r	subtalar_angle_r	hip_flexion_l	hip_adduction_l	hip_rotation_l	knee_angle_l	ankle_angle_l	subtalar_angle_l	lumbar_extension	lumbar_bending	lumbar_rotation
      3.13000000	     15.34295140	      0.94871097	   -137.08511227	      0.31282107	      0.86601614	     -0.30961128	      8.57002515	      5.45356298	      2.99332149	    -22.59672269	     14.32337336	    -16.56806806	     31.78334797	    -12.25931414	      5.68567978	    -82.55811396	     16.24489646	     -5.82107765	      1.22487666	     -6.94667391	     20.90764887
      3.14000000	     14.88044138	      0.88775886	   -139.29244215	      0.31425666	      0.86406034	     -0.31118512	      8.02833126	      5.83735597	      4.80368355	    -22.15353538	     15.17606289	    -16.63414044	     32.34023590	    -12.08422190	      7.01977984	    -81.96978559	     16.33707102	     -6.13853506	      1.07403182	     -6.27692281	     21.05949460
      3.15000000	     14.38881450	      0.81304696	   -141.29072702	      0.31568021	      0.86237535	     -0.31254426	      7.36754876	      6.17395693	      6.50760610	    -21.60440949	     15.96679724	    -16.74513769	     32.90750982	    -11.86473162	      8.33814819	    -81.19710409	     16.43467419	     -6.46617957	      0.84811245	     -5.64203785	     21.03640024
      3.16000000	     13.88736869	      0.71126226	   -143.08852619	      0.31706696	      0.86094874	     -0.31367188	      6.59308395	      6.43532756	      8.08488815	    -20.94051675	     16.70586002	    -16.90456194	     33.48324180	    -11.59185467	      9.59060890	    -80.23062234	     16.54094349	     -6.79007217	      0.56123781	     -5.07043303	     20.85788870
      3.17000000	     13.40433482	      0.55919086	   -144.69569467	      0.31843141	      0.85975026	     -0.31456656	      5.73129838	      6.57817617	      9.50751333	    -20.17867713	     17.42806496	    -17.13572446	     34.07349396	    -11.23149346	     10.73851926	    -79.06988206	     16.64259815	     -7.11052655	      0.23522950	     -4.60555221	     20.56007997
      3.18000000	     12.97590031	      0.41628542	   -146.17553570	      0.31981487	      0.85861042	     -0.31538822	      4.90449521	      6.65441219	     10.86384685	    -19.39715411	     18.12916232	    -17.26099180	     34.76102761	    -10.86858607	     11.71867481	    -77.73828748	     16.71517411	     -7.28394842	     -0.05974095	     -4.21106434	     20.18550218
      3.19000000	     12.59066122	      0.19893724	   -147.52412751	      0.32116764	      0.85762083	     -0.31604890	      4.02565395	      6.58571287	     12.10370072	    -18.53835864	     18.82067640	    -17.46135698	     35.45112328	    -10.42966157	     12.49404649	    -76.21110026	     16.77042679	     -7.43961132	     -0.37551718	     -3.95449165	     19.75871084
      3.20000000	     12.26904707	     -0.06052683	   -148.78013827	      0.32251727	      0.85665858	     -0.31660506	      3.17461019	      6.40018346	     13.23883833	    -17.66597117	     19.53804037	    -17.71795159	     36.18848750	     -9.94524128	     13.05236593	    -74.52069779	     16.78647482	     -7.51834557	     -0.66655726	     -3.81121573	     19.32745836
      3.21000000	     12.00499719	     -0.32468180	   -149.99572555	      0.32383915	      0.85565403	     -0.31715703	      2.38979637	      6.15249106	     14.33634648	    -16.81367793	     20.23992375	    -17.94398479	     36.98885182	     -9.49268895	     13.36242678	    -72.68897704	     16.72805718	     -7.46286748	     -0.91531465	     -3.73456197	     18.92640300
      3.22000000	     11.78237542	     -0.59869711	   -151.18860431	      0.32512036	      0.85461828	     -0.31769947	      1.67282601	      5.85351691	     15.38829076	    -16.01738108	     20.92894471	    -18.16381932	     37.82035363	     -9.07216987	     13.43419340	    -70.72859173	     16.60084526	     -7.28700575	     -1.13913346	     -3.71304630	     18.58234532
      3.23000000	     11.56784014	     -0.87773592	   -152.37338304	      0.32631117	      0.85358841	     -0.31822804	      1.00677450	      5.53233723	     16.38081286	    -15.30217610	     21.59404687	    -18.41529547	     38.64241682	     -8.70723339	     13.27882223	    -68.65481771	     16.40975210	     -6.97312938	     -1.36734737	     -3.71645351	     18.29662911
      3.24000000	     11.33472649	     -1.14411074	   -153.56239527	      0.32738299	      0.85260985	     -0.31872820	      0.38638894	      5.22236931	     17.31509504	    -14.68998145	     22.21828473	    -18.69505754	     39.43028067	     -8.41419323	     12.93117429	    -66.49018650	     16.16163476	     -6.49538735	     -1.61542844	     -3.70797512	     18.09376695
      3.25000000	     11.07370745	     -1.38149385	   -154.76589882	      0.32833912	      0.85173377	     -0.31921487	     -0.15839790	      4.95629669	     18.23433813	    -14.24615583	     22.77001530	    -18.92612888	     40.17282914	     -8.19970454	     12.42091925	    -64.24672849	     15.87177774	     -5.91899942	     -1.89397122	     -3.66294502	     17.97494572
      3.26000000	     10.76359534	     -1.58697121	   -155.97495496	      0.32915303	      0.85105294	     -0.31965546	     -0.65105286	      4.74362794	     19.13189302	    -13.96166497	     23.22421957	    -19.10058859	     40.84127443	     -8.05495410	     11.78430940	    -61.93454169	     15.54325696	     -5.21673454	     -2.22584999	     -3.57008671	     17.92717849
      3.27000000	     10.39819741	     -1.76306885	   -157.18055463	      0.32982723	      0.85063084	     -0.32000668	     -1.08939802	      4.58482131	     20.02515676	    -13.86077958	     23.60945156	    -19.15743065	     41.41434086	     -7.95491677	     11.05476130	    -59.55983441	     15.23331958	     -4.46175460	     -2.62626300	     -3.42864449	     17.94188117
      3.28000000	      9.99362078	     -1.90665455	   -158.36507731	      0.33036922	      0.85050399	     -0.32021663	     -1.47324137	      4.46873638	     20.90938304	    -13.90875391	     23.89241083	    -19.08267315	     41.90480738	     -7.87143882	     10.26041355	    -57.13240669	     14.91111837	     -3.63856323	     -3.07767446	     -3.24223706	     18.00519849
      3.29000000	      9.56753835	     -2.02704037	   -159.51093602	      0.33078073	      0.85067551	     -0.32025879	     -1.81155536	      4.37350655	     21.75870397	    -14.06119787	     24.07247703	    -18.85710121	     42.32502400	     -7.77771224	      9.41093454	    -54.66599236	     14.56202673	     -2.69005604	     -3.56881271	     -3.03423471	     18.07206914
      3.30000000	      9.14980801	     -2.14443204	   -160.61473035	      0.33107682	      0.85111376	     -0.32007982	     -2.10324263	      4.26112820	     22.58813758	    -14.28509266	     24.19716753	    -18.50935137	     42.68262421	     -7.62602189	      8.54102914	    -52.16567633	     14.19535521	     -1.70894386	     -4.07109342	     -2.83324998	     18.16539432
      3.31000000	      8.76832092	     -2.26534963	   -161.67034094	      0.33122992	      0.85176026	     -0.31967441	     -2.35292687	      4.11347578	     23.37180624	    -14.52533195	     24.25263188	    -18.07062697	     43.00389061	     -7.40631144	      7.65091078	    -49.64742832	     13.77171060	     -0.64372265	     -4.54691369	     -2.65627863	     18.25428109
      3.32000000	      8.43675540	     -2.40555780	   -162.67494532	      0.33124722	      0.85254826	     -0.31906409	     -2.57319573	      3.90883952	     24.10777186	    -14.74412179	     24.25820002	    -17.59398802	     43.30339147	     -7.10059629	      6.77767417	    -47.13335226	     13.28498576	      0.49095414	     -4.98379316	     -2.52697348	     18.32858388
      3.33000000	      8.17281414	     -2.56579614	   -163.63590760	      0.33111055	      0.85340201	     -0.31828105	     -2.76848965	      3.63946081	     24.80672194	    -14.89827751	     24.22340402	    -17.11359433	     43.60245537	     -6.71240816	      5.95388518	    -44.64438629	     12.73244346	      1.70008578	     -5.35320421	     -2.45215682	     18.38824346
      3.34000000	      7.93690742	     -2.76004977	   -164.56029832	      0.33080386	      0.85432916	     -0.31737339	     -2.97972427	      3.30773139	     25.42655183	    -14.99569572	     24.16527582	    -16.68636778	     43.86301117	     -6.25184628	      5.21251065	    -42.20165576	     12.10936919	      2.92573142	     -5.70164441	     -2.43276229	     18.45262542
      3.35000000	      7.77350978	     -2.96058625	   -165.45379603	      0.33032217	      0.85518765	     -0.31637340	     -3.17254622	      2.92538534	     26.03425726	    -14.99683668	     24.07504973	    -16.27721956	     44.15970017	     -5.74203784	      4.60244867	    -39.84720923	     11.47481245	      4.23421387	     -5.96182927	     -2.45105648	     18.48539212
      3.36000000	      7.60822674	     -3.18308022	   -166.33862607	      0.32966279	      0.85606006	     -0.31535439	     -3.40396715	      2.50647973	     26.60223062	    -14.94558210	     23.98254834	    -15.94271778	     44.41782399	     -5.21014851	      4.13625089	    -37.60455254	     10.81820634	      5.47014104	     -6.22860961	     -2.50451544	     18.52833860
      3.37000000	      7.47327960	     -3.39289441	   -167.22256058	      0.32881604	      0.85684623	     -0.31434193	     -3.63606483	      2.07626208	     27.15992519	    -14.82874398	     23.87399782	    -15.63317787	     44.69919110	     -4.69376769	      3.84166211	    -35.51454614	     10.19686645	      6.68555387	     -6.45134928	     -2.56490774	     18.59855979
      3.38000000	      7.33774880	     -3.59124365	   -168.12938160	      0.32778743	      0.85758027	     -0.31337683	     -3.88946444	      1.64320682	     27.71875862	    -14.66420190	     23.77199392	    -15.35349357	     44.97901920	     -4.22161146	      3.70724168	    -33.60565771	      9.62916646	      7.78587936	     -6.66992376	     -2.62750740	     18.72566947
      3.39000000	      7.20705302	     -3.76724861	   -169.06850896	      0.32657547	      0.85824616	     -0.31249075	     -4.15014013	      1.21970480	     28.30383626	    -14.46183947	     23.63872374	    -15.06971073	     45.27703094	     -3.82184132	      3.69849215	    -31.90913348	      9.14473296	      8.78268730	     -6.87884485	     -2.68150660	     18.87445718
      3.40000000	      7.06819245	     -3.92363990	   -170.05734089	      0.32518286	      0.85887494	     -0.31169585	     -4.42976536	      0.80226794	     28.91445790	    -14.22188479	     23.51619180	    -14.78812874	     45.57740720	     -3.51108208	      3.77191910	    -30.43333920	      8.73973020	      9.58659438	     -7.09388473	     -2.72973510	     19.09979174
      3.41000000	      6.92891849	     -4.05891748	   -171.10109769	      0.32359804	      0.85947210	     -0.31099047	     -4.71729321	      0.38754793	     29.53585317	    -13.94394930	     23.36080802	    -14.47964596	     45.88380458	     -3.30032900	      3.87574112	    -29.18108216	      8.43096992	     10.24011779	     -7.30307162	     -2.77355336	     19.40644323
      3.42000000	      6.78950581	     -4.15948909	   -172.15785953	      0.32185241	      0.86004879	     -0.31029082	     -5.01851105	     -0.01444258	     30.10232941	    -13.61298648	     23.19689198	    -14.08966133	     46.20683610	     -3.16850512	      4.01768596	    -28.15352439	      8.10042266	     10.81646604	     -7.50865512	     -2.79106703	     19.74723749
      3.43000000	      6.65424818	     -4.24528749	   -173.25553912	      0.31992817	      0.86061448	     -0.30967044	     -5.31158705	     -0.41222539	     30.65888090	    -13.27502632	     23.02128560	    -13.68740401	     46.52498008	     -3.12676567	      4.10765142	    -27.32642950	      7.79576509	     11.18325667	     -7.70638885	     -2.81287124	     20.13332260
      3.44000000	      6.52222002	     -4.31189388	   -174.36046704	      0.31782606	      0.86118133	     -0.30906836	     -5.59872455	     -0.79902024	     31.14658981	    -12.93226586	     22.83397889	    -13.25023360	     46.83347234	     -3.15111191	      4.15126751	    -26.68475957	      7.45266512	     11.42554424	     -7.89482039	     -2.82936467	     20.54102130
